<svg xmlns="http://www.w3.org/2000/svg" xmlns:xlink="http://www.w3.org/1999/xlink" width="500" zoomAndPan="magnify" viewBox="0 0 375 68.249996" height="91" preserveAspectRatio="xMidYMid meet" version="1.0"><defs><g/><clipPath id="7715e2299d"><path d="M 3 1 L 32 1 L 32 27 L 3 27 Z M 3 1 " clip-rule="nonzero"/></clipPath><clipPath id="985c278a72"><path d="M 29.976562 -14.992188 L 87.011719 38.925781 L 60.050781 67.441406 L 3.019531 13.523438 Z M 29.976562 -14.992188 " clip-rule="nonzero"/></clipPath><clipPath id="43b480f7db"><path d="M 29.976562 -14.992188 L 87.011719 38.925781 L 60.050781 67.441406 L 3.019531 13.523438 Z M 29.976562 -14.992188 " clip-rule="nonzero"/></clipPath><clipPath id="9cebbd9467"><path d="M 30 1 L 71 1 L 71 40 L 30 40 Z M 30 1 " clip-rule="nonzero"/></clipPath><clipPath id="547b08a254"><path d="M 29.976562 -14.992188 L 87.011719 38.925781 L 60.050781 67.441406 L 3.019531 13.523438 Z M 29.976562 -14.992188 " clip-rule="nonzero"/></clipPath><clipPath id="e2ca32e141"><path d="M 29.976562 -14.992188 L 87.011719 38.925781 L 60.050781 67.441406 L 3.019531 13.523438 Z M 29.976562 -14.992188 " clip-rule="nonzero"/></clipPath><clipPath id="801692fb9a"><path d="M 46 39 L 71 39 L 71 67.507812 L 46 67.507812 Z M 46 39 " clip-rule="nonzero"/></clipPath><clipPath id="8f86ac6266"><path d="M 29.976562 -14.992188 L 87.011719 38.925781 L 60.050781 67.441406 L 3.019531 13.523438 Z M 29.976562 -14.992188 " clip-rule="nonzero"/></clipPath><clipPath id="48bdb9ae85"><path d="M 29.976562 -14.992188 L 87.011719 38.925781 L 60.050781 67.441406 L 3.019531 13.523438 Z M 29.976562 -14.992188 " clip-rule="nonzero"/></clipPath><clipPath id="4c6ba720d9"><path d="M 31 36 L 74 36 L 74 44 L 31 44 Z M 31 36 " clip-rule="nonzero"/></clipPath><clipPath id="cf4da20515"><path d="M 29.976562 -14.992188 L 87.011719 38.925781 L 60.050781 67.441406 L 3.019531 13.523438 Z M 29.976562 -14.992188 " clip-rule="nonzero"/></clipPath><clipPath id="118818bedb"><path d="M 29.976562 -14.992188 L 87.011719 38.925781 L 60.050781 67.441406 L 3.019531 13.523438 Z M 29.976562 -14.992188 " clip-rule="nonzero"/></clipPath></defs><g fill="#082032" fill-opacity="1"><g transform="translate(77.265212, 44.773544)"><g><path d="M 24.84375 -23.609375 L 10.453125 -23.609375 L 10.453125 -16.78125 L 23.703125 -16.78125 L 23.703125 -10.875 L 10.453125 -10.875 L 10.453125 0 L 2.953125 0 L 2.953125 -29.515625 L 24.84375 -29.515625 Z M 24.84375 -23.609375 "/></g></g></g><g fill="#082032" fill-opacity="1"><g transform="translate(102.735362, 44.773544)"><g><path d="M 3.8125 -32.03125 C 4.53125 -32.75 5.453125 -33.109375 6.578125 -33.109375 C 7.703125 -33.109375 8.625 -32.75 9.34375 -32.03125 C 10.0625 -31.3125 10.421875 -30.390625 10.421875 -29.265625 C 10.421875 -28.140625 10.0625 -27.210938 9.34375 -26.484375 C 8.625 -25.753906 7.703125 -25.390625 6.578125 -25.390625 C 5.453125 -25.390625 4.53125 -25.753906 3.8125 -26.484375 C 3.09375 -27.210938 2.734375 -28.140625 2.734375 -29.265625 C 2.734375 -30.390625 3.09375 -31.3125 3.8125 -32.03125 Z M 10.15625 0 L 2.90625 0 L 2.90625 -22.734375 L 10.15625 -22.734375 Z M 10.15625 0 "/></g></g></g><g fill="#082032" fill-opacity="1"><g transform="translate(115.849961, 44.773544)"><g><path d="M 17.796875 -23.0625 C 20.296875 -23.0625 22.304688 -22.265625 23.828125 -20.671875 C 25.347656 -19.085938 26.109375 -16.976562 26.109375 -14.34375 L 26.109375 0 L 18.84375 0 L 18.84375 -12.3125 C 18.84375 -13.632812 18.484375 -14.679688 17.765625 -15.453125 C 17.054688 -16.222656 16.082031 -16.609375 14.84375 -16.609375 C 13.550781 -16.609375 12.488281 -16.1875 11.65625 -15.34375 C 10.832031 -14.5 10.347656 -13.390625 10.203125 -12.015625 L 10.203125 0 L 2.90625 0 L 2.90625 -22.734375 L 10.203125 -22.734375 L 10.203125 -19.015625 C 11.804688 -21.660156 14.335938 -23.007812 17.796875 -23.0625 Z M 17.796875 -23.0625 "/></g></g></g><g fill="#082032" fill-opacity="1"><g transform="translate(144.229775, 44.773544)"><g><path d="M 13.109375 -23.0625 C 16.234375 -23.0625 18.660156 -22.335938 20.390625 -20.890625 C 22.117188 -19.441406 23 -17.425781 23.03125 -14.84375 L 23.03125 0 L 15.90625 0 L 15.90625 -2.609375 C 14.40625 -0.640625 12.082031 0.34375 8.9375 0.34375 C 6.550781 0.34375 4.65625 -0.316406 3.25 -1.640625 C 1.84375 -2.960938 1.140625 -4.679688 1.140625 -6.796875 C 1.140625 -8.953125 1.890625 -10.628906 3.390625 -11.828125 C 4.898438 -13.023438 7.0625 -13.632812 9.875 -13.65625 L 15.859375 -13.65625 L 15.859375 -14 C 15.859375 -15.125 15.484375 -16 14.734375 -16.625 C 13.992188 -17.257812 12.890625 -17.578125 11.421875 -17.578125 C 9.367188 -17.578125 7.109375 -16.945312 4.640625 -15.6875 L 2.578125 -20.5 C 6.253906 -22.207031 9.765625 -23.0625 13.109375 -23.0625 Z M 11.171875 -4.59375 C 12.328125 -4.59375 13.335938 -4.878906 14.203125 -5.453125 C 15.078125 -6.035156 15.628906 -6.789062 15.859375 -7.71875 L 15.859375 -9.734375 L 11.265625 -9.734375 C 9.066406 -9.734375 7.96875 -8.921875 7.96875 -7.296875 C 7.96875 -6.453125 8.25 -5.789062 8.8125 -5.3125 C 9.375 -4.832031 10.160156 -4.59375 11.171875 -4.59375 Z M 11.171875 -4.59375 "/></g></g></g><g fill="#082032" fill-opacity="1"><g transform="translate(169.531249, 44.773544)"><g><path d="M 17.796875 -23.0625 C 20.296875 -23.0625 22.304688 -22.265625 23.828125 -20.671875 C 25.347656 -19.085938 26.109375 -16.976562 26.109375 -14.34375 L 26.109375 0 L 18.84375 0 L 18.84375 -12.3125 C 18.84375 -13.632812 18.484375 -14.679688 17.765625 -15.453125 C 17.054688 -16.222656 16.082031 -16.609375 14.84375 -16.609375 C 13.550781 -16.609375 12.488281 -16.1875 11.65625 -15.34375 C 10.832031 -14.5 10.347656 -13.390625 10.203125 -12.015625 L 10.203125 0 L 2.90625 0 L 2.90625 -22.734375 L 10.203125 -22.734375 L 10.203125 -19.015625 C 11.804688 -21.660156 14.335938 -23.007812 17.796875 -23.0625 Z M 17.796875 -23.0625 "/></g></g></g><g fill="#f16610" fill-opacity="1"><g transform="translate(197.906918, 44.773544)"><g><path d="M 11.046875 -23.0625 C 14.390625 -23.0625 17.507812 -22.207031 20.40625 -20.5 L 17.921875 -15.765625 C 15.109375 -17.285156 12.71875 -18.046875 10.75 -18.046875 C 9.257812 -18.046875 8.515625 -17.523438 8.515625 -16.484375 C 8.515625 -15.921875 8.921875 -15.445312 9.734375 -15.0625 C 10.554688 -14.6875 11.554688 -14.34375 12.734375 -14.03125 C 13.910156 -13.726562 15.082031 -13.34375 16.25 -12.875 C 17.414062 -12.414062 18.40625 -11.679688 19.21875 -10.671875 C 20.039062 -9.660156 20.453125 -8.421875 20.453125 -6.953125 C 20.453125 -4.679688 19.566406 -2.90625 17.796875 -1.625 C 16.023438 -0.34375 13.71875 0.296875 10.875 0.296875 C 6.851562 0.296875 3.453125 -0.769531 0.671875 -2.90625 L 3 -7.546875 C 5.664062 -5.660156 8.347656 -4.71875 11.046875 -4.71875 C 12.703125 -4.71875 13.53125 -5.238281 13.53125 -6.28125 C 13.53125 -6.875 13.128906 -7.363281 12.328125 -7.75 C 11.535156 -8.144531 10.5625 -8.5 9.40625 -8.8125 C 8.25 -9.125 7.09375 -9.507812 5.9375 -9.96875 C 4.789062 -10.4375 3.816406 -11.160156 3.015625 -12.140625 C 2.210938 -13.128906 1.8125 -14.367188 1.8125 -15.859375 C 1.8125 -18.128906 2.664062 -19.894531 4.375 -21.15625 C 6.09375 -22.425781 8.316406 -23.0625 11.046875 -23.0625 Z M 11.046875 -23.0625 "/></g></g></g><g fill="#f16610" fill-opacity="1"><g transform="translate(219.539669, 44.773544)"><g><path d="M 18.046875 -23.0625 C 20.546875 -23.0625 22.554688 -22.265625 24.078125 -20.671875 C 25.597656 -19.085938 26.359375 -16.976562 26.359375 -14.34375 L 26.359375 0 L 19.0625 0 L 19.0625 -12.3125 C 19.0625 -13.632812 18.703125 -14.679688 17.984375 -15.453125 C 17.265625 -16.222656 16.289062 -16.609375 15.0625 -16.609375 C 13.65625 -16.609375 12.53125 -16.101562 11.6875 -15.09375 C 10.84375 -14.082031 10.421875 -12.789062 10.421875 -11.21875 L 10.421875 0 L 3.125 0 L 3.125 -31.296875 L 10.421875 -31.296875 L 10.421875 -18.984375 C 12.015625 -21.648438 14.554688 -23.007812 18.046875 -23.0625 Z M 18.046875 -23.0625 "/></g></g></g><g fill="#f16610" fill-opacity="1"><g transform="translate(248.130324, 44.773544)"><g><path d="M 12.859375 -22.984375 C 16.796875 -22.984375 19.753906 -21.773438 21.734375 -19.359375 C 23.722656 -16.941406 24.585938 -13.625 24.328125 -9.40625 L 8.34375 -9.40625 C 8.707031 -8.050781 9.351562 -7.007812 10.28125 -6.28125 C 11.21875 -5.550781 12.359375 -5.1875 13.703125 -5.1875 C 15.785156 -5.1875 17.597656 -5.957031 19.140625 -7.5 L 22.984375 -3.75 C 20.535156 -1.082031 17.234375 0.25 13.078125 0.25 C 9.390625 0.25 6.457031 -0.800781 4.28125 -2.90625 C 2.101562 -5.019531 1.015625 -7.816406 1.015625 -11.296875 C 1.015625 -14.816406 2.101562 -17.644531 4.28125 -19.78125 C 6.457031 -21.914062 9.316406 -22.984375 12.859375 -22.984375 Z M 8.21875 -13.328125 L 17.328125 -13.328125 C 17.328125 -14.703125 16.925781 -15.8125 16.125 -16.65625 C 15.320312 -17.5 14.265625 -17.921875 12.953125 -17.921875 C 11.710938 -17.921875 10.671875 -17.503906 9.828125 -16.671875 C 8.984375 -15.847656 8.445312 -14.734375 8.21875 -13.328125 Z M 8.21875 -13.328125 "/></g></g></g><g fill="#f16610" fill-opacity="1"><g transform="translate(273.516137, 44.773544)"><g><path d="M 10.421875 0 L 3.125 0 L 3.125 -31.296875 L 10.421875 -31.296875 Z M 10.421875 0 "/></g></g></g><g fill="#f16610" fill-opacity="1"><g transform="translate(287.052417, 44.773544)"><g><path d="M 11.046875 -23.0625 C 14.390625 -23.0625 17.507812 -22.207031 20.40625 -20.5 L 17.921875 -15.765625 C 15.109375 -17.285156 12.71875 -18.046875 10.75 -18.046875 C 9.257812 -18.046875 8.515625 -17.523438 8.515625 -16.484375 C 8.515625 -15.921875 8.921875 -15.445312 9.734375 -15.0625 C 10.554688 -14.6875 11.554688 -14.34375 12.734375 -14.03125 C 13.910156 -13.726562 15.082031 -13.34375 16.25 -12.875 C 17.414062 -12.414062 18.40625 -11.679688 19.21875 -10.671875 C 20.039062 -9.660156 20.453125 -8.421875 20.453125 -6.953125 C 20.453125 -4.679688 19.566406 -2.90625 17.796875 -1.625 C 16.023438 -0.34375 13.71875 0.296875 10.875 0.296875 C 6.851562 0.296875 3.453125 -0.769531 0.671875 -2.90625 L 3 -7.546875 C 5.664062 -5.660156 8.347656 -4.71875 11.046875 -4.71875 C 12.703125 -4.71875 13.53125 -5.238281 13.53125 -6.28125 C 13.53125 -6.875 13.128906 -7.363281 12.328125 -7.75 C 11.535156 -8.144531 10.5625 -8.5 9.40625 -8.8125 C 8.25 -9.125 7.09375 -9.507812 5.9375 -9.96875 C 4.789062 -10.4375 3.816406 -11.160156 3.015625 -12.140625 C 2.210938 -13.128906 1.8125 -14.367188 1.8125 -15.859375 C 1.8125 -18.128906 2.664062 -19.894531 4.375 -21.15625 C 6.09375 -22.425781 8.316406 -23.0625 11.046875 -23.0625 Z M 11.046875 -23.0625 "/></g></g></g><g clip-path="url(#7715e2299d)"><g clip-path="url(#985c278a72)"><g clip-path="url(#43b480f7db)"><path fill="#334756" d="M 3.292969 13.234375 L 16.84375 26.046875 C 17.761719 25.074219 18.765625 24.199219 19.859375 23.429688 C 20.949219 22.65625 22.109375 22 23.332031 21.457031 C 24.554688 20.914062 25.824219 20.496094 27.132812 20.207031 C 28.441406 19.914062 29.769531 19.753906 31.113281 19.726562 L 30.480469 1.210938 C 27.917969 1.265625 25.390625 1.566406 22.894531 2.121094 C 20.398438 2.671875 17.984375 3.464844 15.652344 4.496094 C 13.320312 5.527344 11.113281 6.777344 9.035156 8.25 C 6.953125 9.71875 5.039062 11.382812 3.292969 13.234375 Z M 3.292969 13.234375 " fill-opacity="1" fill-rule="nonzero"/></g></g></g><g clip-path="url(#9cebbd9467)"><g clip-path="url(#547b08a254)"><g clip-path="url(#e2ca32e141)"><path fill="#0a2b3b" d="M 58.449219 12.027344 C 56.578125 10.253906 54.554688 8.679688 52.378906 7.300781 C 50.199219 5.921875 47.910156 4.769531 45.511719 3.84375 C 43.113281 2.914062 40.648438 2.230469 38.117188 1.785156 C 35.585938 1.34375 33.042969 1.152344 30.480469 1.210938 L 31.113281 19.726562 C 31.785156 19.710938 32.457031 19.730469 33.125 19.78125 C 33.792969 19.835938 34.460938 19.917969 35.121094 20.035156 C 35.785156 20.152344 36.441406 20.300781 37.089844 20.484375 C 37.738281 20.664062 38.375 20.875 39.003906 21.117188 C 39.632812 21.363281 40.246094 21.636719 40.847656 21.9375 C 41.449219 22.242188 42.035156 22.574219 42.605469 22.933594 C 43.175781 23.292969 43.726562 23.683594 44.261719 24.097656 C 44.792969 24.511719 45.304688 24.949219 45.796875 25.414062 C 46.285156 25.875 46.753906 26.363281 47.195312 26.871094 C 47.640625 27.378906 48.058594 27.910156 48.449219 28.457031 C 48.839844 29.007812 49.203125 29.574219 49.542969 30.15625 C 49.878906 30.742188 50.183594 31.339844 50.464844 31.953125 C 50.742188 32.566406 50.988281 33.191406 51.207031 33.828125 C 51.421875 34.46875 51.609375 35.113281 51.761719 35.765625 C 51.917969 36.421875 52.039062 37.082031 52.128906 37.746094 C 52.214844 38.414062 52.273438 39.082031 52.296875 39.75 L 70.816406 39.34375 C 70.734375 36.785156 70.398438 34.253906 69.816406 31.753906 C 69.230469 29.253906 68.410156 26.832031 67.347656 24.484375 C 66.285156 22.140625 65.007812 19.921875 63.511719 17.824219 C 62.011719 15.726562 60.328125 13.796875 58.449219 12.027344 Z M 58.449219 12.027344 " fill-opacity="1" fill-rule="nonzero"/></g></g></g><g clip-path="url(#801692fb9a)"><g clip-path="url(#8f86ac6266)"><g clip-path="url(#48bdb9ae85)"><path fill="#f16610" d="M 70.816406 39.34375 L 52.296875 39.75 C 52.34375 41.09375 52.257812 42.429688 52.039062 43.753906 C 51.824219 45.078125 51.476562 46.367188 51.003906 47.617188 C 50.53125 48.871094 49.941406 50.066406 49.230469 51.199219 C 48.523438 52.332031 47.707031 53.382812 46.789062 54.355469 L 60.339844 67.164062 C 62.089844 65.316406 63.644531 63.3125 64.996094 61.152344 C 66.347656 58.996094 67.472656 56.722656 68.371094 54.335938 C 69.269531 51.949219 69.925781 49.492188 70.335938 46.96875 C 70.75 44.449219 70.910156 41.90625 70.816406 39.34375 Z M 70.816406 39.34375 " fill-opacity="1" fill-rule="nonzero"/></g></g></g><g clip-path="url(#4c6ba720d9)"><g clip-path="url(#cf4da20515)"><g clip-path="url(#118818bedb)"><path fill="#0a2b3b" d="M 73.195312 39.632812 C 69.765625 40.246094 66.328125 40.730469 62.902344 41.226562 L 57.746094 41.902344 L 52.59375 42.480469 C 50.878906 42.660156 49.160156 42.96875 47.441406 43.238281 C 45.726562 43.496094 44.003906 43.542969 42.273438 43.378906 C 40.515625 43.21875 38.78125 42.921875 37.066406 42.492188 C 35.242188 42.058594 33.496094 41.40625 31.828125 40.539062 C 31.734375 40.488281 31.667969 40.410156 31.636719 40.304688 C 31.605469 40.199219 31.617188 40.101562 31.667969 40.003906 C 31.699219 39.941406 31.746094 39.894531 31.804688 39.859375 C 33.410156 38.925781 35.105469 38.203125 36.894531 37.6875 C 38.578125 37.1875 40.289062 36.8125 42.027344 36.566406 C 43.746094 36.332031 45.46875 36.308594 47.195312 36.496094 C 48.933594 36.6875 50.667969 36.921875 52.394531 37.027344 L 57.578125 37.378906 L 62.769531 37.828125 C 66.273438 38.179688 69.726562 38.472656 73.171875 38.953125 C 73.265625 38.96875 73.34375 39.011719 73.402344 39.085938 C 73.460938 39.164062 73.484375 39.246094 73.472656 39.34375 C 73.449219 39.507812 73.359375 39.601562 73.195312 39.632812 Z M 73.195312 39.632812 " fill-opacity="1" fill-rule="nonzero"/></g></g></g><path stroke-linecap="butt" transform="matrix(0.018442, 0.732854, -0.740183, 0.0186264, 30.554227, 1.201613)" fill="none" stroke-linejoin="miter" d="M 0.00207815 -0.000570867 L 25.251149 0.000508085 " stroke="#0a2b3b" stroke-width="1" stroke-opacity="1" stroke-miterlimit="4"/></svg>